<?xml version="1.0" standalone="no"?>
<!DOCTYPE svg PUBLIC "-//W3C//DTD SVG 20010904//EN"
 "http://www.w3.org/TR/2001/REC-SVG-20010904/DTD/svg10.dtd">
<svg version="1.0" xmlns="http://www.w3.org/2000/svg"
 width="1600.000000pt" height="413.000000pt" viewBox="0 0 1600.000000 413.000000"
 preserveAspectRatio="xMidYMid meet">

<g transform="translate(0.000000,413.000000) scale(0.100000,-0.100000)"
fill="#000000" stroke="none">
<path d="M6308 3995 c-133 -36 -198 -134 -198 -294 0 -197 83 -285 278 -298
169 -11 290 33 339 122 34 62 48 167 33 253 -26 155 -137 233 -330 231 -41 0
-96 -7 -122 -14z"/>
<path d="M8905 3926 l-25 -25 0 -541 0 -540 -97 66 c-183 123 -343 183 -544
206 -269 30 -561 -55 -775 -226 -202 -162 -320 -370 -381 -671 -26 -129 -26
-598 0 -728 20 -97 66 -236 105 -312 117 -231 345 -441 577 -530 147 -56 222
-70 380 -70 238 1 391 49 646 206 53 32 99 59 103 59 3 0 6 -34 6 -75 0 -67 3
-79 25 -100 l24 -25 233 0 c195 0 237 3 256 16 l22 15 0 1628 0 1628 -21 19
c-19 17 -42 19 -265 22 l-244 3 -25 -25z m-470 -1351 c33 -9 94 -33 135 -53
101 -49 224 -169 268 -263 54 -113 62 -169 63 -445 1 -221 -1 -258 -19 -326
-25 -92 -46 -135 -105 -213 -116 -153 -277 -225 -502 -225 -191 0 -331 55
-440 172 -70 75 -108 144 -149 270 -76 231 -75 454 4 683 39 118 82 185 162
260 155 143 372 196 583 140z"/>
<path d="M290 2260 l0 -1640 250 0 251 0 24 25 25 24 0 1596 c0 1582 0 1595
-20 1615 -19 19 -33 20 -275 20 l-255 0 0 -1640z"/>
<path d="M14053 3469 c-444 -42 -848 -258 -1122 -599 -389 -483 -470 -1138
-210 -1698 169 -366 503 -683 869 -825 455 -177 932 -153 1359 68 428 221 738
632 841 1112 31 145 38 405 15 560 -97 654 -575 1179 -1223 1342 -154 39 -370
56 -529 40z m252 -309 c198 -19 376 -73 531 -162 357 -204 594 -543 660 -943
21 -129 14 -361 -15 -485 -116 -503 -506 -889 -1011 -1001 -148 -33 -411 -34
-545 -1 -281 70 -464 170 -656 361 -161 160 -265 331 -328 536 -46 153 -55
216 -54 395 0 182 12 260 65 415 100 296 319 561 591 716 186 106 381 161 632
178 11 0 70 -4 130 -9z"/>
<path d="M13604 2805 c-73 -37 -99 -81 -99 -169 0 -91 22 -125 107 -163 l61
-28 49 -104 c62 -131 146 -254 249 -365 72 -77 80 -88 68 -104 -8 -9 -39 -46
-70 -82 -130 -150 -222 -319 -265 -485 -19 -72 -27 -83 -79 -105 -106 -47
-158 -178 -102 -261 81 -120 261 -112 321 15 20 43 21 125 1 173 -21 49 -19
78 10 162 45 133 124 269 223 384 20 23 50 58 65 77 l29 34 66 -74 c140 -153
236 -302 282 -436 18 -51 18 -55 2 -50 -98 30 -356 112 -426 136 -113 38 -143
39 -152 5 -3 -14 -2 -31 4 -38 6 -7 137 -55 291 -107 l280 -95 -1 -72 c-1 -62
2 -77 25 -111 49 -74 157 -103 235 -63 75 39 112 97 112 177 0 79 -51 142
-133 165 -57 17 -73 32 -86 84 -32 128 -122 278 -267 443 -54 63 -103 119
-107 126 -6 7 14 35 59 81 126 130 229 285 284 428 27 69 29 71 87 97 95 43
141 116 130 207 -6 52 -29 88 -78 121 -29 20 -44 23 -96 20 -67 -4 -100 -21
-137 -72 -18 -24 -21 -42 -21 -139 0 -111 0 -113 -42 -199 -62 -130 -184 -300
-282 -392 l-31 -30 -36 35 c-46 44 -151 169 -198 238 -44 62 -116 207 -116
232 0 19 -4 20 285 -61 230 -64 274 -73 291 -59 19 16 18 46 -3 57 -10 6 -128
42 -263 82 -135 40 -251 78 -259 86 -8 7 -18 38 -22 68 -9 68 -39 112 -93 137
-55 25 -93 24 -152 -6z"/>
<path d="M2440 3083 c-177 -31 -310 -96 -472 -227 l-103 -84 -5 105 c-7 155
-9 156 -303 151 -185 -3 -189 -3 -208 -27 -19 -23 -19 -52 -17 -1188 3 -1140
3 -1165 22 -1179 16 -11 69 -14 263 -14 230 0 244 1 263 20 20 20 20 33 20
729 0 456 4 737 11 788 27 195 136 343 297 403 132 50 313 49 447 -1 118 -44
199 -154 227 -309 6 -31 13 -376 17 -800 7 -826 4 -794 71 -817 44 -15 360
-17 412 -3 49 14 75 50 83 113 12 96 -14 1634 -29 1722 -44 259 -207 463 -452
565 -157 65 -363 85 -544 53z"/>
<path d="M4575 3085 c-323 -52 -535 -189 -649 -418 -65 -129 -80 -197 -80
-342 1 -102 5 -132 27 -201 33 -101 86 -183 164 -254 124 -116 288 -176 748
-275 245 -54 302 -76 350 -139 33 -43 47 -119 35 -189 -15 -95 -57 -152 -137
-188 -56 -26 -205 -59 -267 -59 -75 0 -316 44 -755 140 -52 11 -98 20 -103 20
-4 0 -8 -81 -8 -180 0 -199 7 -233 56 -267 30 -20 383 -117 558 -153 258 -53
488 -46 696 22 83 26 221 97 285 146 111 84 215 245 261 402 14 50 19 96 18
200 0 119 -4 145 -27 217 -32 97 -109 217 -173 271 -114 96 -236 146 -473 196
-289 61 -526 123 -578 150 -65 34 -95 88 -95 171 1 66 23 125 58 156 50 44
207 99 283 99 75 0 430 -52 694 -101 112 -21 151 -20 161 6 3 8 6 98 7 200 1
199 -2 216 -54 250 -25 16 -316 85 -471 111 -132 22 -419 27 -531 9z"/>
<path d="M10775 3080 c-130 -24 -208 -50 -327 -112 -294 -153 -502 -435 -582
-789 -51 -225 -43 -556 20 -804 102 -405 427 -695 899 -802 64 -14 123 -18
290 -18 249 0 347 16 590 96 195 65 243 91 273 149 22 42 23 54 20 213 -3 165
-4 169 -27 188 -32 26 -48 22 -241 -56 -273 -111 -374 -135 -559 -135 -96 0
-146 5 -205 20 -203 54 -357 174 -441 345 -36 73 -65 170 -65 217 l0 28 833 0
c650 0 837 3 857 13 46 23 53 70 41 272 -18 292 -48 430 -127 588 -110 218
-271 373 -499 483 -235 112 -502 149 -750 104z m439 -493 c205 -75 335 -255
361 -501 l7 -66 -581 0 -581 0 0 60 c0 212 180 446 395 513 77 24 92 26 215
22 92 -3 129 -8 184 -28z"/>
<path d="M6190 3017 c-52 -26 -50 20 -48 -1192 3 -1045 4 -1132 20 -1161 10
-17 25 -34 33 -38 9 -3 131 -6 271 -6 l254 0 2 1133 c1 622 1 1155 0 1182 -2
39 -8 55 -28 73 -24 21 -31 22 -252 22 -162 0 -234 -4 -252 -13z"/>
</g>
</svg>
