<?xml version="1.0" standalone="no"?>
<!DOCTYPE svg PUBLIC "-//W3C//DTD SVG 20010904//EN"
 "http://www.w3.org/TR/2001/REC-SVG-20010904/DTD/svg10.dtd">
<svg version="1.0" xmlns="http://www.w3.org/2000/svg"
 width="2014.000000pt" height="521.000000pt" viewBox="0 0 2014.000000 521.000000"
 preserveAspectRatio="xMidYMid meet">

<g transform="translate(0.000000,521.000000) scale(0.100000,-0.100000)"
fill="#000000" stroke="none">
<path d="M7937 5041 c-83 -21 -142 -61 -184 -125 -47 -70 -58 -116 -58 -251 0
-150 17 -207 84 -275 74 -76 133 -94 311 -94 126 -1 154 2 211 22 121 42 186
124 210 266 31 183 -37 363 -163 427 -97 49 -284 63 -411 30z"/>
<path d="M11224 4970 c-12 -5 -26 -15 -30 -22 -5 -7 -11 -322 -14 -701 l-5
-687 -119 80 c-148 101 -247 151 -395 200 -167 55 -301 74 -481 67 -201 -8
-388 -56 -554 -139 -128 -64 -275 -176 -371 -280 -286 -313 -399 -726 -366
-1345 20 -377 81 -587 245 -832 342 -513 965 -735 1533 -546 121 41 213 86
393 194 l135 81 5 -97 c10 -169 -4 -163 359 -163 297 0 320 3 340 47 8 17 11
589 11 2058 l0 2034 -24 28 -24 28 -309 2 c-169 1 -318 -2 -329 -7z m-600
-1725 c152 -44 257 -105 361 -210 73 -72 99 -107 133 -175 67 -136 74 -172 82
-470 11 -400 -4 -523 -88 -685 -26 -49 -64 -98 -127 -161 -76 -78 -104 -98
-185 -138 -126 -62 -211 -79 -380 -79 -159 0 -253 18 -355 66 -229 110 -365
312 -437 650 -30 145 -30 380 1 525 27 127 79 277 123 350 171 288 537 425
872 327z"/>
<path d="M360 2850 l0 -2071 320 3 320 3 27 28 28 27 0 2021 0 2021 -24 19
c-22 18 -43 19 -347 19 l-324 0 0 -2070z"/>
<path d="M17680 4378 c-1080 -101 -1901 -1038 -1857 -2118 52 -1269 1229
-2186 2468 -1924 797 168 1423 800 1584 1598 55 272 55 541 0 811 -163 804
-798 1439 -1600 1600 -205 41 -397 52 -595 33z m523 -417 c540 -117 992 -493
1198 -997 50 -122 93 -287 109 -417 18 -140 8 -413 -20 -542 -109 -514 -441
-936 -912 -1159 -135 -65 -208 -90 -348 -122 -365 -83 -755 -36 -1091 130
-332 165 -588 422 -755 756 -166 332 -213 724 -130 1090 32 140 57 213 123
350 231 487 671 821 1213 920 146 27 468 22 613 -9z"/>
<path d="M18475 3575 c-5 -2 -27 -6 -48 -10 -59 -10 -123 -74 -143 -142 -14
-48 -14 -66 -3 -133 12 -74 11 -82 -10 -142 -38 -104 -119 -251 -197 -355 -80
-106 -224 -271 -238 -272 -20 -2 -220 231 -297 346 -54 80 -149 267 -149 294
0 21 9 19 293 -62 116 -33 257 -71 311 -84 91 -22 102 -23 123 -10 29 20 29
50 1 69 -13 7 -162 55 -333 106 -170 51 -317 99 -326 107 -10 8 -19 37 -22 70
-12 115 -88 199 -190 210 -85 10 -180 -39 -225 -116 -23 -40 -27 -57 -27 -127
0 -109 27 -150 130 -199 39 -19 79 -43 88 -52 8 -10 32 -56 52 -103 73 -172
182 -331 333 -491 45 -48 82 -92 82 -97 0 -6 -27 -42 -61 -79 -183 -205 -311
-428 -364 -634 -27 -106 -40 -125 -99 -149 -168 -68 -219 -277 -95 -383 92
-80 239 -75 322 9 42 42 59 81 64 149 4 48 0 73 -21 129 l-26 69 20 72 c58
207 133 342 314 564 l101 123 78 -83 c169 -181 298 -380 361 -557 23 -65 24
-73 9 -68 -116 34 -549 172 -603 192 -84 30 -110 28 -128 -8 -18 -39 -3 -60
55 -80 26 -9 187 -64 358 -122 l310 -105 0 -94 c0 -85 2 -97 28 -135 117 -178
393 -120 437 93 26 123 -48 228 -186 264 -54 14 -65 29 -103 140 -73 212 -151
330 -408 618 l-61 69 85 89 c168 177 292 366 368 560 l31 80 63 21 c34 12 76
35 93 50 72 68 100 202 59 282 -23 44 -66 87 -101 100 -32 12 -92 21 -105 17z"/>
<path d="M3084 3894 c-172 -28 -381 -114 -504 -206 -30 -23 -97 -77 -147 -121
l-93 -79 0 124 c0 104 -3 128 -20 155 -30 50 -63 55 -347 51 -247 -3 -253 -3
-275 -26 l-23 -23 0 -1470 0 -1471 28 -24 28 -24 300 0 301 0 29 29 c18 18 29
40 30 58 0 15 1 438 2 938 2 1023 -1 977 79 1143 107 225 342 346 634 328 121
-8 193 -25 275 -67 145 -72 221 -199 251 -415 6 -49 13 -423 17 -994 6 -858 7
-917 24 -948 33 -61 62 -67 332 -67 316 0 334 8 354 148 6 43 6 358 1 860 -14
1252 -17 1313 -78 1484 -78 222 -245 410 -457 516 -88 43 -211 83 -322 102
-105 18 -308 18 -419 -1z"/>
<path d="M5769 3895 c-505 -79 -802 -321 -910 -741 -29 -113 -31 -304 -5 -404
40 -152 97 -260 189 -357 148 -157 349 -239 859 -353 150 -33 306 -70 346 -81
188 -50 261 -131 262 -290 0 -139 -48 -236 -145 -290 -118 -66 -344 -103 -492
-80 -120 19 -411 77 -690 137 -139 30 -257 54 -263 54 -6 0 -10 -79 -10 -232
0 -263 8 -297 71 -335 38 -23 500 -150 684 -188 171 -35 270 -45 431 -45 288
0 550 74 764 215 398 263 535 848 293 1249 -51 83 -173 203 -260 255 -104 62
-260 113 -504 166 -443 95 -644 149 -716 191 -26 15 -53 43 -70 72 -25 41 -28
57 -28 132 0 151 50 212 232 281 84 33 93 34 218 33 143 -1 390 -35 774 -104
122 -23 231 -38 242 -35 47 15 50 37 47 288 -3 221 -4 237 -24 264 -12 15 -35
36 -52 46 -53 31 -486 127 -683 152 -150 18 -440 18 -560 0z"/>
<path d="M13645 3904 c-342 -52 -601 -178 -825 -403 -325 -327 -478 -790 -441
-1337 14 -208 41 -363 87 -505 135 -419 438 -716 889 -872 220 -76 399 -102
643 -94 261 8 504 59 800 168 128 47 197 89 224 135 27 46 39 168 32 322 -7
161 -16 200 -51 213 -34 13 -71 1 -303 -91 -351 -140 -452 -164 -685 -164
-111 0 -181 5 -230 16 -372 85 -620 348 -670 711 l-6 47 1055 0 c768 0 1062 3
1080 11 52 24 60 64 53 274 -10 322 -44 525 -118 712 -145 366 -456 652 -851
782 -174 58 -265 72 -468 76 -102 2 -198 1 -215 -1z m404 -620 c134 -30 271
-117 354 -223 94 -119 166 -321 167 -463 l0 -48 -726 0 -727 0 5 103 c9 175
67 296 213 442 123 124 244 185 403 205 84 11 228 4 311 -16z"/>
<path d="M7795 3811 c-11 -5 -29 -19 -40 -31 -20 -22 -20 -38 -23 -1449 -2
-1272 -1 -1430 13 -1467 31 -82 16 -79 386 -82 l329 -3 2 1458 c2 802 0 1476
-4 1498 -4 25 -16 48 -33 62 -26 23 -28 23 -318 22 -161 0 -301 -4 -312 -8z"/>
</g>
</svg>
